{
  "asset": {
    "version": "2.0",
    "generator": "MauiMultimedia Sample"
  },
  "scene": 0,
  "scenes": [
    { "nodes": [0] }
  ],
  "nodes": [
    { "mesh": 0, "name": "Pyramid" }
  ],
  "meshes": [
    {
      "primitives": [
        {
          "attributes": { "POSITION": 0, "NORMAL": 1 },
          "indices": 2
        }
      ]
    }
  ],
  "accessors": [
    { "bufferView": 0, "componentType": 5126, "count": 4, "type": "VEC3", "min": [-1,-1,-1], "max": [1,1,1] },
    { "bufferView": 1, "componentType": 5126, "count": 4, "type": "VEC3" },
    { "bufferView": 2, "componentType": 5123, "count": 12, "type": "SCALAR" }
  ],
  "bufferViews": [
    { "buffer": 0, "byteOffset": 0, "byteLength": 48 },
    { "buffer": 0, "byteOffset": 48, "byteLength": 48 },
    { "buffer": 0, "byteOffset": 96, "byteLength": 24 }
  ],
  "buffers": [
    { "byteLength": 120, "uri": "sample.bin" }
  ]
}
